HIERARCHY
ROOT hip
{
  OFFSET 0 0 0
  CHANNELS 6 Xposition Yposition Zposition Zrotation Yrotation Xrotation
  JOINT abdomen
  {
    OFFSET 0 20.6881 -0.73152
    CHANNELS 3 Zrotation Xrotation Yrotation
    JOINT chest
    {
      OFFSET 0 11.7043 -0.48768
      CHANNELS 3 Zrotation Xrotation Yrotation
      JOINT neck
      {
        OFFSET 0 22.1894 -2.19456
        CHANNELS 3 Zrotation Xrotation Yrotation
        JOINT head
        {
          OFFSET -0.24384 7.07133 1.2192
          CHANNELS 3 Zrotation Xrotation Yrotation
          JOINT leftEye
          {
            OFFSET 4.14528 8.04674 8.04672
            CHANNELS 3 Zrotation Xrotation Yrotation
            End Site
            {
              OFFSET 1 0 0
            }
          }
          JOINT rightEye
          {
            OFFSET -3.6576 8.04674 8.04672
            CHANNELS 3 Zrotation Xrotation Yrotation
            End Site
            {
              OFFSET 1 0 0
            }
          }
        }
      }
      JOINT rCollar
      {
        OFFSET -2.68224 19.2634 -4.8768
        CHANNELS 3 Zrotation Xrotation Yrotation
        JOINT rShldr
        {
          OFFSET -8.77824 -1.95073 1.46304
          CHANNELS 3 Zrotation Xrotation Yrotation
          JOINT rForeArm
          {
            OFFSET -28.1742 -1.7115 0.48768
            CHANNELS 3 Zrotation Xrotation Yrotation
            JOINT rHand
            {
              OFFSET -22.5879 0.773209 7.07136
              CHANNELS 3 Zrotation Xrotation Yrotation
              JOINT rThumb1
              {
                OFFSET -1.2192 -0.487915 3.41376
                CHANNELS 3 Zrotation Xrotation Yrotation
                JOINT rThumb2
                {
                  OFFSET -3.37035 -0.52449 3.41376
                  CHANNELS 3 Zrotation Xrotation Yrotation
                  End Site
                  {
                    OFFSET -1.78271 -1.18214 1.43049
                  }
                }
              }
              JOINT rIndex1
              {
                OFFSET -7.75947 0.938293 5.60832
                CHANNELS 3 Zrotation Xrotation Yrotation
                JOINT rIndex2
                {
                  OFFSET -2.54057 -0.884171 1.56538
                  CHANNELS 3 Zrotation Xrotation Yrotation
                  End Site
                  {
                    OFFSET -1.62519 -0.234802 1.16502
                  }
                }
              }
              JOINT rMid1
              {
                OFFSET -8.24714 1.18213 3.41376
                CHANNELS 3 Zrotation Xrotation Yrotation
                JOINT rMid2
                {
                  OFFSET -3.10165 -0.590103 1.0647
                  CHANNELS 3 Zrotation Xrotation Yrotation
                  End Site
                  {
                    OFFSET -2.48547 -0.328903 0.83742
                  }
                }
              }
              JOINT rRing1
              {
                OFFSET -8.82822 0.546677 1.51678
                CHANNELS 3 Zrotation Xrotation Yrotation
                JOINT rRing2
                {
                  OFFSET -2.60934 -0.819778 -0.0198488
                  CHANNELS 3 Zrotation Xrotation Yrotation
                  End Site
                  {
                    OFFSET -2.33842 -0.294052 0.168128
                  }
                }
              }
              JOINT rPinky1
              {
                OFFSET -8.27202 -0.0477905 -0.4584
                CHANNELS 3 Zrotation Xrotation Yrotation
                JOINT rPinky2
                {
                  OFFSET -1.82734 -0.647385 -0.700984
                  CHANNELS 3 Zrotation Xrotation Yrotation
                  End Site
                  {
                    OFFSET -1.69225 -0.51767 -0.607171
                  }
                }
              }
            }
          }
        }
      }
      JOINT lCollar
      {
        OFFSET 2.68224 19.2634 -4.8768
        CHANNELS 3 Zrotation Xrotation Yrotation
        JOINT lShldr
        {
          OFFSET 8.77824 -1.95073 1.46304
          CHANNELS 3 Zrotation Xrotation Yrotation
          JOINT lForeArm
          {
            OFFSET 28.1742 -1.7115 0.48768
            CHANNELS 3 Zrotation Xrotation Yrotation
            JOINT lHand
            {
              OFFSET 22.5879 0.773209 7.07136
              CHANNELS 3 Zrotation Xrotation Yrotation
              JOINT lThumb1
              {
                OFFSET 1.2192 -0.487915 3.41376
                CHANNELS 3 Zrotation Xrotation Yrotation
                JOINT lThumb2
                {
                  OFFSET 3.37035 -0.52449 3.41376
                  CHANNELS 3 Zrotation Xrotation Yrotation
                  End Site
                  {
                    OFFSET 1.78271 -1.18214 1.43049
                  }
                }
              }
              JOINT lIndex1
              {
                OFFSET 7.75947 0.938293 5.60832
                CHANNELS 3 Zrotation Xrotation Yrotation
                JOINT lIndex2
                {
                  OFFSET 2.54057 -0.884171 1.56538
                  CHANNELS 3 Zrotation Xrotation Yrotation
                  End Site
                  {
                    OFFSET 1.62519 -0.234802 1.16502
                  }
                }
              }
              JOINT lMid1
              {
                OFFSET 8.24714 1.18213 3.41376
                CHANNELS 3 Zrotation Xrotation Yrotation
                JOINT lMid2
                {
                  OFFSET 3.10165 -0.590103 1.0647
                  CHANNELS 3 Zrotation Xrotation Yrotation
                  End Site
                  {
                    OFFSET 2.48547 -0.328903 0.83742
                  }
                }
              }
              JOINT lRing1
              {
                OFFSET 8.82822 0.546677 1.51678
                CHANNELS 3 Zrotation Xrotation Yrotation
                JOINT lRing2
                {
                  OFFSET 2.60934 -0.819778 -0.0198488
                  CHANNELS 3 Zrotation Xrotation Yrotation
                  End Site
                  {
                    OFFSET 2.33842 -0.294052 0.168128
                  }
                }
              }
              JOINT lPinky1
              {
                OFFSET 8.27202 -0.0477905 -0.4584
                CHANNELS 3 Zrotation Xrotation Yrotation
                JOINT lPinky2
                {
                  OFFSET 1.82734 -0.647385 -0.700984
                  CHANNELS 3 Zrotation Xrotation Yrotation
                  End Site
                  {
                    OFFSET 1.69225 -0.51767 -0.607171
                  }
                }
              }
            }
          }
        }
      }
    }
  }
  JOINT rButtock
  {
    OFFSET -8.77824 4.35084 1.2192
    CHANNELS 3 Zrotation Xrotation Yrotation
    JOINT rThigh
    {
      OFFSET 0 -1.70687 -2.19456
      CHANNELS 3 Zrotation Xrotation Yrotation
      JOINT rShin
      {
        OFFSET 0 -36.8199 0.73152
        CHANNELS 3 Zrotation Xrotation Yrotation
        JOINT rFoot
        {
          OFFSET 0.73152 -45.1104 -5.12064
          CHANNELS 3 Zrotation Xrotation Yrotation
          End Site
          {
            OFFSET -1.1221 -3.69964 12.103
          }
        }
      }
    }
  }
  JOINT lButtock
  {
    OFFSET 8.77824 4.35084 1.2192
    CHANNELS 3 Zrotation Xrotation Yrotation
    JOINT lThigh
    {
      OFFSET 0 -1.70687 -2.19456
      CHANNELS 3 Zrotation Xrotation Yrotation
      JOINT lShin
      {
        OFFSET 0 -36.8199 0.73152
        CHANNELS 3 Zrotation Xrotation Yrotation
        JOINT lFoot
        {
          OFFSET -0.73152 -45.1104 -5.12064
          CHANNELS 3 Zrotation Xrotation Yrotation
          End Site
          {
            OFFSET 1.1221 -3.69964 12.103
          }
        }
      }
    }
  }
}
MOTION
Frames:	6
Frame Time:	0.03333
0.0012800000149582047 49.318501353263855 -0.033000000985339284 -0.9039923548698425 -2.1959176063537598 7.670032978057861 -3.919344186782837 9.091154098510742 -3.8763527870178223 4.45134973526001 -11.872112274169922 -0.7556525468826294 1.5387746095657349 10.506505012512207 8.755818367004395 3.9205591678619385 -20.805727005004883 17.891555786132812 -0.0 0.0 -0.0 -0.0 0.0 -0.0 -0.0 0.0 -0.0 111.55701446533203 42.268775939941406 -61.86665344238281 -27.860397338867188 -41.094398498535156 85.90629577636719 -23.857473373413086 -74.71138763427734 -30.939470291137695 -0.0 0.0 -0.0 -0.0 0.0 -0.0 -0.0 0.0 -0.0 7.73087739944458 5.47489595413208 0.41732463240623474 -0.0 0.0 -0.0 2.9054994583129883 0.9650753736495972 0.10300876200199127 -0.0 0.0 -0.0 10.278595924377441 0.7317469120025635 0.026285577565431595 -0.0 0.0 -0.0 2.221662759780884 -0.7335850596427917 -0.20831839740276337 -0.0 0.0 -0.0 -57.706695556640625 -23.53729820251465 -85.22379302978516 26.149599075317383 -23.82469940185547 -57.39509963989258 12.200284957885742 -66.1866226196289 18.594127655029297 -0.0 0.0 -0.0 -0.0 0.0 -0.0 -0.0 0.0 -0.0 -7.73087739944458 5.47489595413208 -0.41732463240623474 -0.0 0.0 -0.0 -2.9054994583129883 0.9650753736495972 -0.10300876200199127 -0.0 0.0 -0.0 -10.278595924377441 0.7317469120025635 -0.026285577565431595 -0.0 0.0 -0.0 -2.221662759780884 -0.7335850596427917 0.20831839740276337 -0.0 0.0 -0.0 -70.71662902832031 -60.18350601196289 -55.889320373535156 -174.54261779785156 75.89286804199219 174.95565795898438 1.8842334747314453 -27.926700592041016 3.2350003719329834 -0.0 0.0 -0.0 78.40431213378906 -48.86090087890625 68.43580627441406 174.9366912841797 75.57213592529297 -175.9632110595703 3.3478360176086426 -29.863296508789062 4.906243324279785
0.007479999931092607 49.19289946556091 -0.07400000176858157 -0.8830204606056213 -2.1655514240264893 7.712989807128906 -3.9449527263641357 9.162656784057617 -3.872359275817871 4.450586318969727 -11.91059684753418 -0.7538561820983887 1.5102399587631226 10.551701545715332 8.747185707092285 3.9015207290649414 -20.92719841003418 17.880308151245117 -0.0 0.0 -0.0 -0.0 0.0 -0.0 -0.0 0.0 -0.0 111.58699798583984 42.2513542175293 -61.886871337890625 -27.85980987548828 -41.09709930419922 85.91119384765625 -23.63285255432129 -74.64215850830078 -30.722646713256836 -0.0 0.0 -0.0 -0.0 0.0 -0.0 -0.0 0.0 -0.0 7.73087739944458 5.47489595413208 0.41732463240623474 -0.0 0.0 -0.0 2.9054994583129883 0.9650753736495972 0.10300876200199127 -0.0 0.0 -0.0 10.278595924377441 0.7317469120025635 0.026285577565431595 -0.0 0.0 -0.0 2.221662759780884 -0.7335850596427917 -0.20831839740276337 -0.0 0.0 -0.0 -57.74639892578125 -23.589298248291016 -85.25139617919922 26.145906448364258 -23.81488037109375 -57.379398345947266 12.195911407470703 -66.2003173828125 18.595905303955078 -0.0 0.0 -0.0 -0.0 0.0 -0.0 -0.0 0.0 -0.0 -7.73087739944458 5.47489595413208 -0.41732463240623474 -0.0 0.0 -0.0 -2.9054994583129883 0.9650753736495972 -0.10300876200199127 -0.0 0.0 -0.0 -10.278595924377441 0.7317469120025635 -0.026285577565431595 -0.0 0.0 -0.0 -2.221662759780884 -0.7335850596427917 0.20831839740276337 -0.0 0.0 -0.0 -71.27709197998047 -60.20771026611328 -56.38808822631836 -174.60499572753906 75.68350219726562 175.0159454345703 1.9317402839660645 -27.947500228881836 3.3005921840667725 -0.0 0.0 -0.0 78.75959777832031 -48.87720489501953 68.78279113769531 174.98373413085938 75.37586212158203 -176.00244140625 3.2091333866119385 -29.920991897583008 4.695024013519287
0.000979999913397478 49.069300293922424 -0.11100000119768083 -0.8310155868530273 -2.1670520305633545 7.765006065368652 -3.9670889377593994 9.238438606262207 -3.8650808334350586 4.453558921813965 -11.95720100402832 -0.7502208352088928 1.4943665266036987 10.60809326171875 8.750003814697266 3.8337464332580566 -21.046382904052734 17.882518768310547 -0.0 0.0 -0.0 -0.0 0.0 -0.0 -0.0 0.0 -0.0 111.625 42.234012603759766 -61.92699432373047 -27.858688354492188 -41.10200119018555 85.92029571533203 -23.532102584838867 -74.56659698486328 -30.602079391479492 -0.0 0.0 -0.0 -0.0 0.0 -0.0 -0.0 0.0 -0.0 7.73087739944458 5.47489595413208 0.41732463240623474 -0.0 0.0 -0.0 2.9054994583129883 0.9650753736495972 0.10300876200199127 -0.0 0.0 -0.0 10.278595924377441 0.7317469120025635 0.026285577565431595 -0.0 0.0 -0.0 2.221662759780884 -0.7335850596427917 -0.20831839740276337 -0.0 0.0 -0.0 -57.801605224609375 -23.655202865600586 -85.2737045288086 26.141407012939453 -23.802997589111328 -57.3600959777832 12.235173225402832 -66.23662567138672 18.63509178161621 -0.0 0.0 -0.0 -0.0 0.0 -0.0 -0.0 0.0 -0.0 -7.73087739944458 5.47489595413208 -0.41732463240623474 -0.0 0.0 -0.0 -2.9054994583129883 0.9650753736495972 -0.10300876200199127 -0.0 0.0 -0.0 -10.278595924377441 0.7317469120025635 -0.026285577565431595 -0.0 0.0 -0.0 -2.221662759780884 -0.7335850596427917 0.20831839740276337 -0.0 0.0 -0.0 -71.81690216064453 -60.25689697265625 -56.85451126098633 -174.6626739501953 75.48057556152344 175.0726776123047 1.9637870788574219 -27.967697143554688 3.3423190116882324 -0.0 0.0 -0.0 79.11040496826172 -48.86979293823242 69.13350677490234 175.03250122070312 75.18386840820312 -176.04730224609375 3.0907254219055176 -29.97530174255371 4.513795375823975
0.01269999966098112 48.943498730659485 -0.1610000035725534 -0.8456219434738159 -2.2061681747436523 7.8009934425354 -3.9797816276550293 9.313087463378906 -3.8328189849853516 4.467123031616211 -12.021093368530273 -0.7373669147491455 1.4869823455810547 10.61900520324707 8.787210464477539 3.7489147186279297 -21.112144470214844 17.944841384887695 -0.0 0.0 -0.0 -0.0 0.0 -0.0 -0.0 0.0 -0.0 111.66598510742188 42.223876953125 -62.0040168762207 -27.8572998046875 -41.10830307006836 85.93170166015625 -23.57442855834961 -74.5855712890625 -30.6460018157959 -0.0 0.0 -0.0 -0.0 0.0 -0.0 -0.0 0.0 -0.0 7.73087739944458 5.47489595413208 0.41732463240623474 -0.0 0.0 -0.0 2.9054994583129883 0.9650753736495972 0.10300876200199127 -0.0 0.0 -0.0 10.278595924377441 0.7317469120025635 0.026285577565431595 -0.0 0.0 -0.0 2.221662759780884 -0.7335850596427917 -0.20831839740276337 -0.0 0.0 -0.0 -57.867401123046875 -23.7123966217041 -85.29309844970703 26.131195068359375 -23.775901794433594 -57.3163948059082 12.18458080291748 -66.23820495605469 18.60152816772461 -0.0 0.0 -0.0 -0.0 0.0 -0.0 -0.0 0.0 -0.0 -7.73087739944458 5.47489595413208 -0.41732463240623474 -0.0 0.0 -0.0 -2.9054994583129883 0.9650753736495972 -0.10300876200199127 -0.0 0.0 -0.0 -10.278595924377441 0.7317469120025635 -0.026285577565431595 -0.0 0.0 -0.0 -2.221662759780884 -0.7335850596427917 0.20831839740276337 -0.0 0.0 -0.0 -72.3479995727539 -60.36298370361328 -57.3086051940918 -174.72080993652344 75.27658081054688 175.130859375 1.9795715808868408 -27.969594955444336 3.359137773513794 -0.0 0.0 -0.0 79.47630310058594 -48.83210372924805 69.50990295410156 175.08126831054688 74.99617767333984 -176.10093688964844 3.1315951347351074 -29.972497940063477 4.5714850425720215
0.014899999678164022 48.820000886917114 -0.20600000279955566 -0.7918888926506042 -2.241870641708374 7.86801290512085 -3.964496374130249 9.403632164001465 -3.8004915714263916 4.494235038757324 -12.09257698059082 -0.7222921252250671 1.4646644592285156 10.610779762268066 8.825996398925781 3.6805739402770996 -21.148500442504883 18.013187408447266 -0.0 0.0 -0.0 -0.0 0.0 -0.0 -0.0 0.0 -0.0 111.7070083618164 42.20283508300781 -62.093082427978516 -27.85699462890625 -41.10970687866211 85.93419647216797 -23.650583267211914 -74.60903930664062 -30.71925163269043 -0.0 0.0 -0.0 -0.0 0.0 -0.0 -0.0 0.0 -0.0 7.73087739944458 5.47489595413208 0.41732463240623474 -0.0 0.0 -0.0 2.9054994583129883 0.9650753736495972 0.10300876200199127 -0.0 0.0 -0.0 10.278595924377441 0.7317469120025635 0.026285577565431595 -0.0 0.0 -0.0 2.221662759780884 -0.7335850596427917 -0.20831839740276337 -0.0 0.0 -0.0 -57.95378875732422 -23.774003982543945 -85.31769561767578 26.121206283569336 -23.74968910217285 -57.27410125732422 12.16422176361084 -66.2244644165039 18.5830020904541 -0.0 0.0 -0.0 -0.0 0.0 -0.0 -0.0 0.0 -0.0 -7.73087739944458 5.47489595413208 -0.41732463240623474 -0.0 0.0 -0.0 -2.9054994583129883 0.9650753736495972 -0.10300876200199127 -0.0 0.0 -0.0 -10.278595924377441 0.7317469120025635 -0.026285577565431595 -0.0 0.0 -0.0 -2.221662759780884 -0.7335850596427917 0.20831839740276337 -0.0 0.0 -0.0 -72.80369567871094 -60.4994010925293 -57.71168518066406 -174.77626037597656 75.08186340332031 175.18922424316406 1.9393490552902222 -27.957597732543945 3.289761781692505 -0.0 0.0 -0.0 79.86470031738281 -48.78689956665039 69.87921142578125 175.13418579101562 74.80548858642578 -176.16033935546875 3.2046239376068115 -29.952598571777344 4.677934169769287
0.011069999618484871 48.70389997959137 -0.2630000002682209 -0.8263483047485352 -2.28186297416687 7.893978595733643 -3.9269635677337646 9.520676612854004 -3.7919435501098633 4.555377006530762 -12.16030502319336 -0.7116097807884216 1.393794298171997 10.593302726745605 8.835270881652832 3.6931941509246826 -21.138330459594727 18.040159225463867 -0.0 0.0 -0.0 -0.0 0.0 -0.0 -0.0 0.0 -0.0 111.74898529052734 42.15727233886719 -62.18001174926758 -27.860301971435547 -41.09479522705078 85.90699768066406 -23.539331436157227 -74.59134674072266 -30.620975494384766 -0.0 0.0 -0.0 -0.0 0.0 -0.0 -0.0 0.0 -0.0 7.73087739944458 5.47489595413208 0.41732463240623474 -0.0 0.0 -0.0 2.9054994583129883 0.9650753736495972 0.10300876200199127 -0.0 0.0 -0.0 10.278595924377441 0.7317469120025635 0.026285577565431595 -0.0 0.0 -0.0 2.221662759780884 -0.7335850596427917 -0.20831839740276337 -0.0 0.0 -0.0 -58.07590103149414 -23.848602294921875 -85.3440933227539 26.120206832885742 -23.746904373168945 -57.26979446411133 12.183526039123535 -66.21109008789062 18.591405868530273 -0.0 0.0 -0.0 -0.0 0.0 -0.0 -0.0 0.0 -0.0 -7.73087739944458 5.47489595413208 -0.41732463240623474 -0.0 0.0 -0.0 -2.9054994583129883 0.9650753736495972 -0.10300876200199127 -0.0 0.0 -0.0 -10.278595924377441 0.7317469120025635 -0.026285577565431595 -0.0 0.0 -0.0 -2.221662759780884 -0.7335850596427917 0.20831839740276337 -0.0 0.0 -0.0 -73.13819122314453 -60.64997863769531 -58.037208557128906 -174.83099365234375 74.89810943603516 175.25608825683594 1.7745217084884644 -27.934001922607422 3.030514717102051 -0.0 0.0 -0.0 80.26830291748047 -48.753509521484375 70.20531463623047 175.18197631835938 74.60798645019531 -176.2108612060547 3.20239520072937 -29.947587966918945 4.673540115356445
